<svg width="205" height="45" viewBox="0 0 205 45" fill="none" xmlns="http://www.w3.org/2000/svg">
<g clip-path="url(#clip0_40_5632)">
<path d="M43.2991 19.3256C43.2991 19.3256 26.4404 2.46678 25.4311 1.5444C24.4218 0.622022 23.4946 0.177734 21.9951 0.177734C20.4956 0.177734 18.11 2.9497 18.11 2.9497L6.15527 14.9382H12.2763C12.2763 14.9382 21.1862 5.97279 21.7319 5.47055C22.2776 4.96831 23.1251 5.47055 23.1251 5.47055L38.6752 21.0013C39.0784 21.4045 39.3489 21.6943 39.3489 22.1362C39.3489 22.578 38.8539 23.1165 38.8539 23.1165L31.8008 29.9933V36.2713C31.8008 36.2713 41.4327 26.6249 42.8573 25.2776C44.2819 23.9302 44.492 23.1817 44.492 21.8971C44.492 20.6125 43.2991 19.3256 43.2991 19.3256Z" fill="url(#paint0_linear_40_5632)"/>
<path d="M24.629 37.2251C24.629 37.2251 23.4724 38.4952 22.8084 38.8018C22.1443 39.1085 21.5479 38.5338 21.5479 38.5338L6.12103 23.2131H0C0 23.2131 17.6822 41.0547 18.7422 41.9988C19.8022 42.9429 20.7825 44.0753 22.2433 44.0753C23.7042 44.0753 25.0733 43.0177 25.0733 43.0177L29.1153 38.8936V23.4643H24.629V37.2251Z" fill="url(#paint1_linear_40_5632)"/>
<path d="M22.4148 16.9976H4.24244L0.173828 21.1555H22.4148V16.9976Z" fill="url(#paint2_linear_40_5632)"/>
<mask id="mask0_40_5632" style="mask-type:luminance" maskUnits="userSpaceOnUse" x="25" y="16" width="4" height="1">
<path d="M25.4673 16.6477H28.2803V16.2734H25.4673V16.6477Z" fill="white"/>
</mask>
<g mask="url(#mask0_40_5632)">
<path d="M25.5494 16.2734H25.4673V16.6477H25.5494V16.2734Z" fill="#194A89"/>
<path d="M25.7423 16.2734H25.6626V16.6477H25.7423V16.2734Z" fill="#194A89"/>
<path d="M25.9381 16.2734H25.856V16.6477H25.9381V16.2734Z" fill="#194A89"/>
<path d="M26.1329 16.2734H26.0508V16.6477H26.1329V16.2734Z" fill="#194A89"/>
<path d="M26.3282 16.2734H26.2461V16.6477H26.3282V16.2734Z" fill="#194A89"/>
<path d="M26.525 16.2734H26.4429V16.6477H26.525V16.2734Z" fill="#194A89"/>
<path d="M26.7203 16.2734H26.6382V16.6477H26.7203V16.2734Z" fill="#194A89"/>
<path d="M26.9132 16.2734H26.8335V16.6477H26.9132V16.2734Z" fill="#194A89"/>
<path d="M27.109 16.2734H27.0269V16.6477H27.109V16.2734Z" fill="#194A89"/>
<path d="M27.3048 16.2734H27.2227V16.6477H27.3048V16.2734Z" fill="#194A89"/>
<path d="M27.5001 16.2734H27.418V16.6477H27.5001V16.2734Z" fill="#194A89"/>
<path d="M27.6954 16.2734H27.6133V16.6477H27.6954V16.2734Z" fill="#194A89"/>
<path d="M27.8893 16.2734H27.8096V16.6477H27.8893V16.2734Z" fill="#194A89"/>
<path d="M28.0846 16.2734H28.0049V16.6477H28.0846V16.2734Z" fill="#194A89"/>
<path d="M28.2803 16.2734H28.1982V16.6477H28.2803V16.2734Z" fill="#194A89"/>
</g>
<mask id="mask1_40_5632" style="mask-type:luminance" maskUnits="userSpaceOnUse" x="25" y="21" width="4" height="1">
<path d="M25.4673 21.7498H28.2803V21.3779H25.4673V21.7498Z" fill="white"/>
</mask>
<g mask="url(#mask1_40_5632)">
<path d="M25.5494 21.3779H25.4673V21.7498H25.5494V21.3779Z" fill="#194A89"/>
<path d="M25.7423 21.3779H25.6626V21.7498H25.7423V21.3779Z" fill="#194A89"/>
<path d="M25.9381 21.3779H25.856V21.7498H25.9381V21.3779Z" fill="#194A89"/>
<path d="M26.1329 21.3779H26.0508V21.7498H26.1329V21.3779Z" fill="#194A89"/>
<path d="M26.3282 21.3779H26.2461V21.7498H26.3282V21.3779Z" fill="#194A89"/>
<path d="M26.525 21.3779H26.4429V21.7498H26.525V21.3779Z" fill="#194A89"/>
<path d="M26.7203 21.3779H26.6382V21.7498H26.7203V21.3779Z" fill="#194A89"/>
<path d="M26.9132 21.3779H26.8335V21.7498H26.9132V21.3779Z" fill="#194A89"/>
<path d="M27.109 21.3779H27.0269V21.7498H27.109V21.3779Z" fill="#194A89"/>
<path d="M27.3048 21.3779H27.2227V21.7498H27.3048V21.3779Z" fill="#194A89"/>
<path d="M27.5001 21.3779H27.418V21.7498H27.5001V21.3779Z" fill="#194A89"/>
<path d="M27.6954 21.3779H27.6133V21.7498H27.6954V21.3779Z" fill="#194A89"/>
<path d="M27.8893 21.3779H27.8096V21.7498H27.8893V21.3779Z" fill="#194A89"/>
<path d="M28.0846 21.3779H28.0049V21.7498H28.0846V21.3779Z" fill="#194A89"/>
<path d="M28.2803 21.3779H28.1982V21.7498H28.2803V21.3779Z" fill="#194A89"/>
</g>
<mask id="mask2_40_5632" style="mask-type:luminance" maskUnits="userSpaceOnUse" x="29" y="17" width="1" height="4">
<path d="M29.2393 20.4192H29.6135V17.6062H29.2393V20.4192Z" fill="white"/>
</mask>
<g mask="url(#mask2_40_5632)">
<path d="M29.6135 17.6062H29.2393V17.6859H29.6135V17.6062Z" fill="#194A89"/>
<path d="M29.6135 17.7993H29.2393V17.8814H29.6135V17.7993Z" fill="#194A89"/>
<path d="M29.6135 17.9951H29.2393V18.0772H29.6135V17.9951Z" fill="#194A89"/>
<path d="M29.6135 18.1907H29.2393V18.2728H29.6135V18.1907Z" fill="#194A89"/>
<path d="M29.6135 18.3862H29.2393V18.4683H29.6135V18.3862Z" fill="#194A89"/>
<path d="M29.6135 18.5818H29.2393V18.6639H29.6135V18.5818Z" fill="#194A89"/>
<path d="M29.6135 18.7773H29.2393V18.857H29.6135V18.7773Z" fill="#194A89"/>
<path d="M29.6135 18.9707H29.2393V19.0528H29.6135V18.9707Z" fill="#194A89"/>
<path d="M29.6135 19.1658H29.2393V19.2479H29.6135V19.1658Z" fill="#194A89"/>
<path d="M29.6135 19.3618H29.2393V19.4439H29.6135V19.3618Z" fill="#194A89"/>
<path d="M29.6135 19.5571H29.2393V19.6392H29.6135V19.5571Z" fill="#194A89"/>
<path d="M29.6135 19.7529H29.2393V19.8326H29.6135V19.7529Z" fill="#194A89"/>
<path d="M29.6135 19.9487H29.2393V20.0284H29.6135V19.9487Z" fill="#194A89"/>
<path d="M29.6135 20.1418H29.2393V20.2239H29.6135V20.1418Z" fill="#194A89"/>
<path d="M29.6135 20.3372H29.2393V20.4193H29.6135V20.3372Z" fill="#194A89"/>
</g>
<mask id="mask3_40_5632" style="mask-type:luminance" maskUnits="userSpaceOnUse" x="24" y="17" width="1" height="4">
<path d="M24.1348 20.4192H24.509V17.6062H24.1348V20.4192Z" fill="white"/>
</mask>
<g mask="url(#mask3_40_5632)">
<path d="M24.509 17.6062H24.1348V17.6859H24.509V17.6062Z" fill="#194A89"/>
<path d="M24.509 17.7993H24.1348V17.8814H24.509V17.7993Z" fill="#194A89"/>
<path d="M24.509 17.9951H24.1348V18.0772H24.509V17.9951Z" fill="#194A89"/>
<path d="M24.509 18.1907H24.1348V18.2728H24.509V18.1907Z" fill="#194A89"/>
<path d="M24.509 18.3862H24.1348V18.4683H24.509V18.3862Z" fill="#194A89"/>
<path d="M24.509 18.5818H24.1348V18.6639H24.509V18.5818Z" fill="#194A89"/>
<path d="M24.509 18.7773H24.1348V18.857H24.509V18.7773Z" fill="#194A89"/>
<path d="M24.509 18.9707H24.1348V19.0528H24.509V18.9707Z" fill="#194A89"/>
<path d="M24.509 19.1658H24.1348V19.2479H24.509V19.1658Z" fill="#194A89"/>
<path d="M24.509 19.3618H24.1348V19.4439H24.509V19.3618Z" fill="#194A89"/>
<path d="M24.509 19.5571H24.1348V19.6392H24.509V19.5571Z" fill="#194A89"/>
<path d="M24.509 19.7529H24.1348V19.8326H24.509V19.7529Z" fill="#194A89"/>
<path d="M24.509 19.9487H24.1348V20.0284H24.509V19.9487Z" fill="#194A89"/>
<path d="M24.509 20.1418H24.1348V20.2239H24.509V20.1418Z" fill="#194A89"/>
<path d="M24.509 20.3372H24.1348V20.4193H24.509V20.3372Z" fill="#194A89"/>
</g>
<path d="M28.9175 16.9639H24.8271V21.0542H28.9175V16.9639Z" fill="#194A89"/>
<path d="M28.6033 20.7406H25.1432V17.2804H28.6033V20.7406ZM28.7675 17.1187H24.979V20.9048H28.7675V17.1187Z" fill="#194A89"/>
<path d="M29.0889 21.2257H24.6581V16.7949H29.0889V21.2257ZM29.2772 16.5969H24.4697V21.4261H29.2772V16.5969Z" fill="#194A89"/>
<path d="M26.9951 20.3254C26.9838 20.323 26.9737 20.3165 26.967 20.3071C26.9603 20.2977 26.9574 20.2861 26.9589 20.2747L27.1448 18.2078L26.5894 19.3837C26.5855 19.3923 26.5789 19.3995 26.5707 19.4043C26.5625 19.409 26.553 19.4111 26.5435 19.4102C26.534 19.4096 26.525 19.4059 26.5176 19.3999C26.5103 19.3938 26.505 19.3856 26.5025 19.3764L26.3962 19.048H25.1889C25.1766 19.0474 25.1649 19.0421 25.1563 19.0331C25.1478 19.0241 25.1431 19.0122 25.1431 18.9998C25.1437 18.9878 25.1487 18.9764 25.1572 18.968C25.1656 18.9595 25.177 18.9545 25.1889 18.9539H26.4397C26.4497 18.9536 26.4596 18.9569 26.4675 18.963C26.4754 18.9692 26.4809 18.9779 26.4832 18.9877L26.5653 19.2291L27.1834 17.9228C27.1885 17.9131 27.1968 17.9054 27.2069 17.901C27.217 17.8966 27.2283 17.8958 27.2389 17.8987C27.2494 17.9015 27.2584 17.9079 27.2646 17.9167C27.2708 17.9255 27.2737 17.9362 27.2727 17.947L27.0965 19.8787L27.4007 18.9732C27.4045 18.9641 27.4108 18.9562 27.419 18.9506C27.4271 18.9451 27.4367 18.942 27.4466 18.9418H28.4921C28.4984 18.9418 28.5045 18.9431 28.5103 18.9455C28.516 18.948 28.5212 18.9516 28.5255 18.9561C28.5297 18.9606 28.5331 18.9659 28.5352 18.9718C28.5374 18.9776 28.5383 18.9839 28.538 18.9901C28.538 19.0023 28.5332 19.0139 28.5246 19.0225C28.516 19.0311 28.5043 19.036 28.4921 19.036H27.4587L27.0434 20.294C27.0407 20.3033 27.0349 20.3115 27.027 20.3172C27.0192 20.3229 27.0096 20.3258 26.9999 20.3254" fill="white"/>
<path d="M26.9951 20.3253V20.3494H26.983C26.9673 20.3456 26.9532 20.3367 26.9432 20.324C26.9331 20.3113 26.9276 20.2956 26.9275 20.2794L27.1037 18.3477L26.6039 19.4029C26.5982 19.4148 26.5893 19.4249 26.5783 19.4322C26.5672 19.4394 26.5544 19.4435 26.5411 19.4439C26.5272 19.4425 26.5139 19.4369 26.5031 19.4279C26.4924 19.4188 26.4846 19.4068 26.4808 19.3932L26.3794 19.0817H25.1721C25.1554 19.0787 25.1404 19.0698 25.1295 19.0568C25.1187 19.0438 25.1128 19.0274 25.1128 19.0105C25.1128 18.9936 25.1187 18.9772 25.1295 18.9642C25.1404 18.9512 25.1554 18.9423 25.1721 18.9393H26.4228C26.4381 18.9392 26.4529 18.9441 26.4651 18.9533C26.4773 18.9624 26.4862 18.9753 26.4904 18.99L26.5508 19.1831L27.1448 17.93C27.15 17.9177 27.1588 17.9072 27.17 17.8999C27.1811 17.8926 27.1942 17.8888 27.2076 17.8889H27.2269C27.2418 17.893 27.255 17.9018 27.2646 17.914C27.2741 17.9262 27.2795 17.9411 27.28 17.9565L27.1231 19.6926L27.3645 18.9682C27.3692 18.9543 27.3784 18.9422 27.3906 18.9339C27.4028 18.9257 27.4174 18.9216 27.4321 18.9224H28.4921C28.5107 18.9224 28.5285 18.9297 28.5417 18.9429C28.5548 18.956 28.5622 18.9738 28.5622 18.9924C28.5622 19.011 28.5548 19.0288 28.5417 19.0419C28.5285 19.055 28.5107 19.0624 28.4921 19.0624H27.478L27.0627 20.2939C27.0577 20.3079 27.0486 20.32 27.0365 20.3287C27.0244 20.3373 27.01 20.342 26.9951 20.3422V20.2963L27.0168 20.2794L27.4442 19.0117H28.4921L28.5163 18.99L28.4921 18.9658H27.4249L27.4032 18.9827L27.0434 20.0838L27.2365 17.9517L27.2196 17.93H27.2003L26.5556 19.2894L26.4566 18.9851L26.4349 18.9682H25.1841L25.1624 18.99L25.1841 19.0141H26.418L26.5291 19.3594L26.5508 19.3763H26.5701L27.1834 18.0821L26.983 20.2794L27.0023 20.3035V20.3253V20.3011L26.9951 20.3253Z" fill="white"/>
<path d="M26.3389 18.8061L26.5658 18.0986L26.6697 18.101L26.4427 18.8061H26.3389Z" fill="white"/>
<path d="M26.339 18.8064L26.3148 18.7991L26.549 18.0771H26.6698H26.7012L26.4597 18.8305H26.339H26.3052L26.3148 18.7991L26.339 18.8064V18.7822L26.4259 18.7846L26.6384 18.123H26.5829L26.3607 18.8136L26.339 18.8064V18.7822V18.8064Z" fill="white"/>
<path d="M27.6019 18.8181L27.7999 18.2L27.5415 18.1976L27.5681 18.1155L28.1886 18.1203L28.1621 18.2048L27.9037 18.2L27.7033 18.8181H27.6019Z" fill="white"/>
<path d="M27.6015 18.8186L27.5774 18.8113L27.7681 18.2246L27.5412 18.2222L27.5098 18.2198L27.546 18.1087L27.5508 18.0918L28.2197 18.099L28.1834 18.2125L28.1786 18.227L27.9202 18.2246L27.7223 18.8427L27.6015 18.8403H27.5677L27.5774 18.8113L27.6015 18.8186V18.7944H27.686L27.8864 18.1787L28.1448 18.1811L28.1545 18.1449L27.5846 18.1401L27.575 18.1739L27.7995 18.1763H27.8309L27.6233 18.8258L27.6015 18.8186V18.7944V18.8186Z" fill="white"/>
<path d="M57.0979 10.353V19.8352C57.0987 19.9025 57.0922 19.9697 57.0786 20.0356C57.0825 20.108 57.0825 20.1805 57.0786 20.2529C57.075 20.3197 57.075 20.3866 57.0786 20.4533C57.0665 20.5861 57.0496 20.7213 57.0303 20.8614C57.011 21.0014 56.9868 21.1439 56.9603 21.2888C56.8772 21.6744 56.7389 22.0461 56.5498 22.3923C56.3586 22.7565 56.1217 23.0949 55.8447 23.3991C55.5306 23.7336 55.1305 23.975 54.6881 24.097C54.1198 24.2537 53.5318 24.3277 52.9424 24.3167H50.6099V22.5854H51.6892C52.095 22.6177 52.5034 22.5801 52.8965 22.4743C53.2154 22.389 53.5126 22.2367 53.7682 22.0276C54.0102 21.8199 54.1926 21.5516 54.297 21.2501C54.4231 20.8854 54.4836 20.5012 54.4756 20.1153V10.353H57.1003H57.0979Z" fill="white"/>
<path d="M58.96 10.353H61.616V24.3239H58.96V10.353Z" fill="white"/>
<path d="M64.1369 14.9456C64.3972 14.2302 64.7969 13.5736 65.3128 13.0139C65.809 12.4669 66.3683 11.9806 66.9789 11.5651C67.536 11.1897 68.1432 10.8947 68.7826 10.6886C68.9251 10.6355 69.0723 10.5896 69.2221 10.5486C69.3671 10.511 69.5149 10.4844 69.6639 10.4689C69.8101 10.442 69.9576 10.4227 70.1058 10.411C70.2555 10.3965 70.4028 10.3892 70.5453 10.3892L72.5446 10.3506H73.3293V12.0843H71.7815C70.974 12.1687 70.1841 12.3764 69.4394 12.7C68.7872 12.9924 68.2095 13.4282 67.7491 13.9749C67.3228 14.4737 66.981 15.0389 66.7374 15.6482C66.5134 16.2273 66.3996 16.8431 66.4018 17.464C66.4018 17.5968 66.4018 17.7514 66.4211 17.9228C66.4375 18.11 66.4641 18.2962 66.5008 18.4806C66.5274 18.5747 66.5491 18.6737 66.5684 18.78C66.5876 18.8826 66.6175 18.983 66.6577 19.0794C66.6837 19.1842 66.716 19.2875 66.7543 19.3885C66.7954 19.4875 66.8413 19.5889 66.892 19.6951C67.0548 20.0774 67.2729 20.4337 67.5391 20.7527C67.8332 21.1062 68.1616 21.4297 68.5194 21.7185C68.884 22.0225 69.3085 22.2463 69.7653 22.3753C70.3159 22.5311 70.8836 22.6179 71.4556 22.6337L72.5518 22.595H73.3365V24.3239H70.0768C69.153 24.3263 68.2385 24.1397 67.3894 23.7758C66.6136 23.429 65.9292 22.9066 65.3901 22.2498C64.8436 21.5892 64.4252 20.8326 64.1562 20.0187C63.8733 19.1422 63.7347 18.2256 63.7457 17.3046V17.266C63.7365 16.4754 63.869 15.6895 64.1369 14.9456Z" fill="white"/>
<path d="M80.9326 10.353H83.6225V24.3239H80.9326V10.353Z" fill="white"/>
<path d="M86.8174 10.353H96.5603V12.0867H93.1147V24.3239H90.2654V12.0867H86.8174V10.353Z" fill="white"/>
<path d="M109.969 22.5853C110.244 22.6134 110.522 22.5963 110.792 22.5346C111.021 22.4822 111.24 22.3916 111.439 22.2666C111.624 22.1422 111.778 21.977 111.888 21.7836C112.017 21.5608 112.099 21.3145 112.13 21.0592C112.131 20.8278 112.091 20.598 112.011 20.3807C111.927 20.1574 111.808 19.9487 111.659 19.7626C111.488 19.5556 111.291 19.3721 111.072 19.2169C110.817 19.0323 110.549 18.8661 110.271 18.7195L110.114 18.6398L109.957 18.5601L109.8 18.4805L109.643 18.4008L109.604 18.3815L109.563 18.3404C109.014 18.0893 108.489 17.8172 107.986 17.5243C107.484 17.2313 107.001 16.9262 106.538 16.6091C106.116 16.3199 105.768 15.9373 105.519 15.4912C105.286 15.0495 105.168 14.5562 105.176 14.0569V13.8154C105.168 13.369 105.238 12.9247 105.381 12.5019C105.505 12.1297 105.725 11.7967 106.018 11.536C106.291 11.2808 106.595 11.0602 106.921 10.8793C107.239 10.7085 107.58 10.5848 107.933 10.5123C107.985 10.4985 108.037 10.4881 108.09 10.4809C108.143 10.4761 108.196 10.4664 108.247 10.4519C108.274 10.4554 108.3 10.4554 108.327 10.4519L108.426 10.4229C108.451 10.4262 108.477 10.4262 108.503 10.4229C108.529 10.4207 108.555 10.4207 108.58 10.4229L113.364 10.3843H114.148V12.118H109.674C109.427 12.14 109.183 12.1935 108.95 12.2773C108.739 12.3529 108.547 12.475 108.39 12.6347C108.244 12.779 108.125 12.9473 108.037 13.1321C107.96 13.3034 107.907 13.4847 107.88 13.6706L107.861 13.7502V13.8492C107.86 13.9698 107.869 14.0902 107.89 14.209C107.911 14.3199 107.947 14.4272 107.998 14.5277C108.052 14.6221 108.118 14.709 108.194 14.7861C108.27 14.8638 108.356 14.9312 108.45 14.9865C108.749 15.199 109.039 15.3922 109.322 15.5636C109.604 15.735 109.867 15.8896 110.116 16.0224C110.365 16.1552 110.625 16.2832 110.86 16.4111C111.094 16.5391 111.331 16.6526 111.565 16.7782L111.751 16.8892L111.92 16.9786L112.007 17.0269C112.04 17.049 112.077 17.0661 112.115 17.0776C112.14 17.1027 112.17 17.1232 112.202 17.1379C112.236 17.1379 112.265 17.1645 112.292 17.1766L112.42 17.2659C112.465 17.3007 112.514 17.3314 112.564 17.3577L112.702 17.447C112.755 17.4784 112.806 17.5098 112.859 17.5363C113.101 17.7007 113.328 17.8875 113.535 18.0941C113.76 18.3184 113.967 18.5606 114.153 18.8185C114.351 19.0905 114.504 19.3931 114.605 19.7143C114.711 20.0632 114.764 20.4264 114.762 20.7912C114.762 20.883 114.762 20.982 114.762 21.0882C114.762 21.1945 114.745 21.3007 114.73 21.407C114.716 21.5132 114.706 21.6243 114.692 21.7378C114.68 21.8484 114.66 21.9581 114.634 22.0661C114.546 22.351 114.421 22.623 114.262 22.875C114.094 23.1542 113.89 23.4093 113.653 23.6332C113.38 23.8862 113.048 24.0671 112.688 24.1596C112.215 24.2831 111.727 24.3408 111.239 24.331H105.036V22.5853H109.969Z" fill="white"/>
<path d="M116.357 14.2958C116.694 13.4635 117.218 12.7199 117.888 12.1227C118.519 11.5297 119.239 11.0407 120.023 10.6739C120.758 10.3386 121.549 10.1397 122.355 10.0872H122.421C122.441 10.0842 122.461 10.0768 122.478 10.0655H122.577L123.362 10.0461C123.379 10.0576 123.399 10.0643 123.42 10.0655H123.577C123.746 10.0655 123.92 10.0655 124.096 10.0872C124.273 10.1089 124.451 10.1186 124.635 10.1451C124.818 10.1717 125.004 10.2055 125.195 10.2466C125.386 10.2876 125.576 10.3311 125.772 10.3842C126.398 10.5763 126.993 10.8585 127.537 11.2221C128.128 11.6196 128.673 12.0803 129.165 12.596C129.706 13.1654 130.117 13.8449 130.372 14.588C130.661 15.4631 130.819 16.3759 130.843 17.2972C130.844 18.2128 130.679 19.121 130.355 19.9774C130.029 20.8348 129.558 21.6296 128.962 22.3268C128.373 23.0379 127.619 23.5948 126.767 23.9494C125.846 24.3172 124.861 24.497 123.869 24.4782H123.085C122.134 24.4866 121.189 24.3315 120.291 24.0195C119.431 23.7114 118.636 23.2445 117.949 22.6431C117.247 22.0114 116.71 21.2183 116.384 20.3324C116.011 19.3119 115.831 18.2312 115.853 17.1451V17.1064C115.838 16.1458 116.01 15.1914 116.357 14.2958ZM118.632 17.1258V17.4445C118.614 18.1269 118.727 18.8064 118.965 19.4462C119.215 20.0872 119.581 20.6766 120.045 21.1847C120.45 21.6581 120.95 22.0413 121.513 22.3099C122.08 22.5736 122.692 22.7261 123.316 22.759C123.418 22.7589 123.52 22.7525 123.621 22.7397L123.906 22.6987C124.089 22.6713 124.275 22.6351 124.463 22.59C124.661 22.5411 124.855 22.4773 125.043 22.3993C125.427 22.2502 125.789 22.0496 126.12 21.8029C126.482 21.5299 126.811 21.2154 127.1 20.866C127.432 20.4454 127.672 19.9602 127.805 19.4414C127.975 18.7945 128.056 18.1276 128.047 17.459C128.045 16.7717 127.939 16.0886 127.733 15.4331C127.523 14.7692 127.208 14.1431 126.801 13.5787C126.428 13.0405 125.921 12.6086 125.33 12.3255C124.66 12.0163 123.934 11.8462 123.196 11.8257C122.556 11.8566 121.93 12.0159 121.353 12.2941C120.796 12.573 120.312 12.9792 119.941 13.4797C119.515 14.0043 119.18 14.5969 118.951 15.2327C118.735 15.8471 118.625 16.4939 118.627 17.1451L118.632 17.1258Z" fill="white"/>
<path d="M135.314 10.353V19.4561C135.313 19.8757 135.361 20.294 135.459 20.702C135.542 21.0572 135.674 21.3993 135.85 21.7186C135.999 21.9761 136.216 22.1869 136.478 22.3271C136.784 22.4963 137.122 22.6007 137.471 22.6337L139.018 22.5951H139.806V24.3239H136.862C136.744 24.3239 136.621 24.3239 136.481 24.3239C136.341 24.3239 136.203 24.3094 136.058 24.295C135.913 24.2805 135.768 24.2346 135.616 24.196C135.464 24.1573 135.314 24.109 135.157 24.0559C134.839 23.9357 134.539 23.7732 134.264 23.573C133.967 23.3526 133.695 23.1017 133.45 22.8245C133.191 22.5114 132.998 22.1492 132.883 21.7596C132.745 21.2845 132.679 20.7912 132.687 20.2964V10.353H135.314Z" fill="white"/>
<path d="M143.369 10.353V19.2871C143.357 19.8416 143.423 20.3952 143.565 20.9314C143.667 21.333 143.869 21.7025 144.152 22.0059C144.358 22.2078 144.592 22.3794 144.847 22.5154C145.09 22.6385 145.352 22.7201 145.622 22.7569C145.92 22.7253 146.209 22.6377 146.474 22.4985C146.717 22.3653 146.927 22.1817 147.093 21.96C147.293 21.7022 147.456 21.4167 147.575 21.1125C147.693 20.8092 147.766 20.4903 147.79 20.166V20.1274C147.793 20.1062 147.799 20.0857 147.81 20.067V10.353H150.623V19.6155C150.64 20.3616 150.52 21.1047 150.27 21.8079C150.054 22.3902 149.697 22.9102 149.232 23.3219C148.794 23.7084 148.284 24.0061 147.732 24.1984C147.173 24.3872 146.587 24.4819 145.996 24.4785H145.212C144.006 24.4935 142.842 24.0439 141.959 23.2229C141.498 22.8125 141.139 22.3009 140.909 21.7282C140.674 21.1184 140.557 20.4693 140.566 19.8159V10.353H143.369Z" fill="white"/>
<path d="M151.396 10.353H160.98V12.0867H157.599V24.3239H154.776V12.0867H151.396V10.353Z" fill="white"/>
<path d="M162.051 10.353H164.707V24.3239H162.051V10.353Z" fill="white"/>
<path d="M167.05 14.2958C167.386 13.4641 167.909 12.7207 168.578 12.1227C169.21 11.5301 169.931 11.0411 170.715 10.6739C171.451 10.3386 172.241 10.1397 173.048 10.0872H173.108C173.129 10.0842 173.148 10.0768 173.166 10.0655H173.263L174.047 10.0461C174.065 10.0574 174.086 10.0641 174.108 10.0655H174.265C174.434 10.0655 174.607 10.0655 174.784 10.0872C174.96 10.1089 175.139 10.1186 175.322 10.1451C175.506 10.1717 175.692 10.2055 175.88 10.2466C176.068 10.2876 176.264 10.3311 176.459 10.3842C177.085 10.5758 177.679 10.8581 178.222 11.2221C178.814 11.6184 179.36 12.0792 179.85 12.596C180.388 13.1653 180.796 13.8451 181.045 14.588C181.34 15.4619 181.503 16.3751 181.528 17.2972C181.53 18.2093 181.366 19.1141 181.045 19.9678C180.718 20.8281 180.245 21.6255 179.647 22.3244C179.064 23.0335 178.318 23.5911 177.474 23.9494C176.553 24.3171 175.567 24.4969 174.576 24.4782H173.794C172.843 24.4868 171.898 24.3316 171 24.0195C170.14 23.712 169.345 23.245 168.658 22.6431C167.947 22.0146 167.401 21.2211 167.069 20.3324C166.698 19.3115 166.519 18.231 166.54 17.1451V17.1064C166.526 16.1454 166.699 15.1908 167.05 14.2958ZM169.324 17.1258V17.4445C169.304 18.1271 169.417 18.807 169.658 19.4462C169.907 20.0867 170.272 20.6759 170.734 21.1847C171.141 21.6576 171.642 22.0408 172.205 22.3099C172.772 22.5742 173.384 22.7267 174.009 22.759C174.11 22.7588 174.212 22.7523 174.313 22.7397L174.598 22.6987C174.78 22.6713 174.966 22.6351 175.156 22.59C175.352 22.5407 175.545 22.4769 175.733 22.3993C176.118 22.2503 176.481 22.0496 176.812 21.8029C177.174 21.5299 177.503 21.2154 177.792 20.866C178.124 20.4454 178.364 19.9602 178.497 19.4414C178.667 18.7945 178.748 18.1276 178.739 17.459C178.741 16.7725 178.64 16.0896 178.439 15.4331C178.23 14.7692 177.915 14.1431 177.507 13.5787C177.131 13.0389 176.62 12.6068 176.025 12.3255C175.354 12.0165 174.627 11.8465 173.888 11.8257C173.249 11.8569 172.622 12.0162 172.046 12.2941C171.489 12.5738 171.006 12.9798 170.635 13.4797C170.209 14.0043 169.875 14.5969 169.645 15.2327C169.428 15.8468 169.319 16.4938 169.322 17.1451L169.324 17.1258Z" fill="white"/>
<path d="M182.908 12.2508C182.905 11.9792 182.951 11.7093 183.044 11.454C183.13 11.2224 183.264 11.0117 183.437 10.8358C183.609 10.6833 183.804 10.5587 184.014 10.4664C184.217 10.3806 184.432 10.3299 184.652 10.3167L185.436 10.2974C185.6 10.3113 185.762 10.3412 185.919 10.3867C186.258 10.4948 186.558 10.6996 186.781 10.9759C186.907 11.1344 187.013 11.308 187.095 11.4926L191.101 19.9775V10.3529H193.728V23.3918C193.733 23.5887 193.699 23.7847 193.629 23.9689C193.573 24.1158 193.47 24.2404 193.337 24.3238C193.208 24.4144 193.065 24.4845 192.914 24.5315C192.758 24.5788 192.595 24.6024 192.432 24.6015H191.531L191.432 24.5822C191.282 24.5695 191.133 24.5395 190.99 24.4928C190.855 24.4445 190.712 24.389 190.57 24.3238C190.442 24.2694 190.328 24.1868 190.237 24.0823C190.144 23.9801 190.071 23.8614 190.022 23.7322L185.712 14.6654V24.3238H182.908V12.2508Z" fill="white"/>
<path d="M200.216 22.585C200.492 22.6132 200.77 22.596 201.04 22.5343C201.269 22.4819 201.488 22.3913 201.687 22.2663C201.872 22.1423 202.027 21.977 202.138 21.7834C202.265 21.5601 202.347 21.3139 202.38 21.059C202.381 20.8276 202.341 20.5977 202.261 20.3805C202.177 20.1571 202.058 19.9485 201.909 19.7623C201.738 19.5515 201.541 19.364 201.322 19.2046C201.066 19.0205 200.797 18.8543 200.518 18.7072L200.361 18.6275L200.204 18.5478L200.047 18.4681L199.89 18.3884L199.852 18.3691L199.813 18.3281C199.262 18.0769 198.736 17.8049 198.234 17.5119C197.732 17.219 197.249 16.9139 196.785 16.5968C196.367 16.3064 196.022 15.9239 195.776 15.4788C195.544 15.0368 195.426 14.5437 195.433 14.0446V13.8031C195.427 13.3568 195.496 12.9126 195.638 12.4895C195.762 12.1174 195.982 11.7844 196.276 11.5237C196.548 11.2685 196.852 11.0479 197.179 10.8669C197.492 10.6937 197.829 10.566 198.178 10.4878C198.23 10.4737 198.282 10.4632 198.335 10.4564C198.388 10.4513 198.441 10.4416 198.492 10.4275C198.518 10.4309 198.544 10.4309 198.569 10.4275L198.668 10.3985C198.694 10.402 198.72 10.402 198.746 10.3985C198.772 10.3961 198.799 10.3961 198.825 10.3985L203.609 10.3599H204.391V12.0935H199.929C199.682 12.1158 199.438 12.1694 199.204 12.2529C198.994 12.3291 198.802 12.4511 198.644 12.6103C198.5 12.7552 198.381 12.9233 198.292 13.1077C198.215 13.279 198.162 13.4602 198.135 13.6461L198.115 13.7258V13.8248C198.114 13.9455 198.124 14.066 198.147 14.1846C198.163 14.2922 198.194 14.397 198.239 14.4961C198.293 14.5899 198.359 14.6767 198.434 14.7544C198.51 14.8321 198.596 14.8995 198.69 14.9549C198.99 15.1673 199.282 15.3605 199.562 15.5319C199.842 15.7034 200.108 15.8579 200.356 15.9907C200.605 16.1235 200.866 16.2515 201.1 16.3795C201.334 16.5074 201.571 16.6209 201.807 16.7465L201.993 16.8576L202.16 16.9469C202.19 16.9612 202.219 16.9774 202.247 16.9952C202.281 17.0169 202.317 17.034 202.356 17.0459C202.381 17.0711 202.41 17.0915 202.442 17.1063C202.476 17.1063 202.505 17.1328 202.532 17.1449L202.66 17.2342C202.706 17.269 202.755 17.2997 202.807 17.326L202.945 17.4153C202.995 17.4467 203.048 17.4781 203.099 17.5047C203.342 17.6696 203.569 17.8563 203.778 18.0625C204.002 18.2874 204.208 18.5296 204.393 18.7868C204.593 19.0583 204.745 19.3611 204.845 19.6827C204.952 20.0316 205.005 20.3947 205.002 20.7596C205.002 20.8513 205.002 20.9503 205.002 21.0566C205.002 21.1628 204.985 21.2691 204.973 21.3753C204.961 21.4815 204.946 21.5926 204.932 21.7061C204.92 21.8167 204.901 21.9265 204.874 22.0345C204.794 22.3298 204.674 22.6126 204.517 22.8748C204.349 23.1539 204.144 23.409 203.908 23.6329C203.635 23.8859 203.303 24.0668 202.942 24.1593C202.47 24.2828 201.982 24.3405 201.493 24.3308H195.276V22.585H200.216Z" fill="white"/>
<path d="M59.2178 33.3715C59.2047 33.3586 59.1943 33.3431 59.1873 33.3261C59.1802 33.3091 59.1766 33.2909 59.1768 33.2725C59.1768 33.2314 59.2033 33.2121 59.2564 33.2121H59.9446C60.003 33.2181 60.0567 33.2467 60.0943 33.2918L61.4875 35.0665C61.4946 35.0724 61.5002 35.0798 61.504 35.0882C61.5077 35.0965 61.5096 35.1056 61.5093 35.1148C61.5093 35.1243 61.5073 35.1337 61.5036 35.1424C61.4999 35.1511 61.4944 35.159 61.4875 35.1655L61.1398 35.5929C61.1331 35.6024 61.1243 35.6101 61.114 35.6154C61.1037 35.6208 61.0923 35.6235 61.0807 35.6235C61.0691 35.6235 61.0577 35.6208 61.0474 35.6154C61.0371 35.6101 61.0282 35.6024 61.0215 35.5929L59.2178 33.3715ZM62.195 36.0903V38.1741C62.195 38.2924 62.1322 38.3528 62.0043 38.3528H61.6107C61.5863 38.3564 61.5614 38.3542 61.538 38.3466C61.5145 38.3389 61.4932 38.3259 61.4756 38.3086C61.4581 38.2912 61.4448 38.2701 61.4368 38.2468C61.4288 38.2234 61.4263 38.1986 61.4296 38.1741V36.1555C61.4292 36.1112 61.4391 36.0674 61.4586 36.0275C61.4784 35.9879 61.5027 35.9506 61.531 35.9165L63.5496 33.287C63.5648 33.2634 63.5855 33.2438 63.6098 33.2299C63.6342 33.216 63.6616 33.2083 63.6897 33.2073H64.3585C64.4116 33.2073 64.4382 33.2266 64.4382 33.2676C64.4272 33.3033 64.41 33.3368 64.3875 33.3666L62.195 36.0903Z" fill="white"/>
<path d="M66.7495 33.8904C66.7505 33.806 66.772 33.7231 66.8123 33.6489C66.8548 33.57 66.9085 33.4977 66.9716 33.434C67.0357 33.3715 67.108 33.3178 67.1865 33.2747C67.2601 33.2326 67.3433 33.2102 67.428 33.2095H71.4338C71.5186 33.2102 71.6017 33.2326 71.6753 33.2747C71.7534 33.3173 71.825 33.3709 71.8878 33.434C71.9509 33.4977 72.0046 33.57 72.0471 33.6489C72.0892 33.7225 72.1116 33.8056 72.1123 33.8904V37.6741C72.1116 37.7588 72.0892 37.842 72.0471 37.9155C72.0046 37.9944 71.9509 38.0668 71.8878 38.1304C71.825 38.1935 71.7534 38.2472 71.6753 38.2898C71.6017 38.3318 71.5186 38.3543 71.4338 38.355H67.4256C67.3408 38.3543 67.2577 38.3318 67.1841 38.2898C67.1056 38.2466 67.0333 38.193 66.9692 38.1304C66.9061 38.0668 66.8524 37.9944 66.8099 37.9155C66.7696 37.8413 66.7481 37.7585 66.7471 37.6741L66.7495 33.8904ZM67.5246 37.6644H71.33V33.9001H67.5246V37.6644Z" fill="white"/>
<path d="M79.7277 33.4029C79.7277 33.2749 79.7881 33.2122 79.9064 33.2122H80.3265C80.3497 33.2126 80.3726 33.2177 80.3938 33.2273C80.415 33.2368 80.434 33.2506 80.4497 33.2677C80.4676 33.2853 80.4817 33.3064 80.4913 33.3296C80.5008 33.3529 80.5056 33.3778 80.5052 33.4029V37.8047C80.5058 37.8769 80.4921 37.9485 80.4648 38.0153C80.4375 38.082 80.3971 38.1427 80.3461 38.1938C80.2951 38.2448 80.2344 38.2851 80.1676 38.3124C80.1008 38.3398 80.0292 38.3535 79.9571 38.3529H76.1517C76.0795 38.3535 76.0079 38.3398 75.9411 38.3124C75.8743 38.2851 75.8137 38.2448 75.7626 38.1938C75.7116 38.1427 75.6713 38.082 75.6439 38.0153C75.6166 37.9485 75.6029 37.8769 75.6035 37.8047V33.4029C75.6032 33.3778 75.6079 33.3529 75.6175 33.3296C75.627 33.3064 75.6412 33.2853 75.6591 33.2677C75.6748 33.2506 75.6938 33.2368 75.7149 33.2273C75.7361 33.2177 75.759 33.2126 75.7822 33.2122H76.2024C76.3207 33.2122 76.381 33.2749 76.381 33.4029V37.6647H79.7277V33.4029Z" fill="white"/>
<path d="M84.0499 33.4028C84.0484 33.3528 84.0666 33.3042 84.1006 33.2675C84.1171 33.2495 84.1373 33.2352 84.1598 33.2257C84.1823 33.2161 84.2065 33.2114 84.231 33.212H87.2178C87.4289 33.2097 87.638 33.2525 87.8312 33.3376C88.0168 33.4179 88.1855 33.5326 88.3286 33.6756C88.4715 33.8192 88.5869 33.9878 88.669 34.173C88.8206 34.5365 88.8327 34.9433 88.7028 35.3151C88.6469 35.476 88.5654 35.6269 88.4614 35.7618C88.3541 35.8963 88.2262 36.0129 88.0823 36.1071C87.9397 36.2025 87.781 36.2712 87.6138 36.3099L89.0288 38.2416C89.0414 38.2628 89.0481 38.287 89.0481 38.3116C89.0481 38.3455 89.0288 38.3624 88.9902 38.3624H88.3624C88.3106 38.3616 88.2602 38.3457 88.2175 38.3165C88.1681 38.288 88.1253 38.2493 88.0919 38.203L86.7373 36.3606H85.5735C85.5494 36.3617 85.5254 36.3577 85.503 36.349C85.4805 36.3403 85.4601 36.327 85.4431 36.3099C85.4263 36.2933 85.4131 36.2733 85.4044 36.2513C85.3956 36.2292 85.3916 36.2056 85.3924 36.182V35.8729C85.3915 35.8489 85.3956 35.8249 85.4043 35.8025C85.413 35.78 85.4262 35.7596 85.4431 35.7425C85.4601 35.7255 85.4805 35.7122 85.503 35.7035C85.5254 35.6947 85.5494 35.6908 85.5735 35.6918H87.1261C87.2465 35.6942 87.3661 35.6727 87.4781 35.6283C87.59 35.5839 87.692 35.5177 87.778 35.4334C87.8649 35.3515 87.934 35.2527 87.9813 35.1431C88.0286 35.0335 88.053 34.9154 88.053 34.796C88.053 34.6766 88.0286 34.5585 87.9813 34.4489C87.934 34.3393 87.8649 34.2405 87.778 34.1585C87.6917 34.0747 87.5897 34.0088 87.4778 33.9644C87.3659 33.9201 87.2464 33.8983 87.1261 33.9002H84.825V38.174C84.8259 38.1981 84.8213 38.2222 84.8117 38.2443C84.8021 38.2664 84.7877 38.2862 84.7694 38.302C84.7336 38.3358 84.6859 38.3541 84.6366 38.3527H84.2382C84.2142 38.3536 84.1902 38.3496 84.1678 38.3408C84.1454 38.3321 84.125 38.3189 84.1078 38.302C84.0908 38.2855 84.0774 38.2656 84.0686 38.2435C84.0599 38.2214 84.056 38.1977 84.0571 38.174L84.0499 33.4028Z" fill="white"/>
<path d="M97.6977 37.8457C97.6973 37.8206 97.7021 37.7957 97.7116 37.7724C97.7212 37.7492 97.7353 37.7281 97.7532 37.7105C97.7689 37.6934 97.7879 37.6796 97.8091 37.6701C97.8303 37.6605 97.8532 37.6554 97.8764 37.655H100.532C100.573 37.656 100.614 37.6486 100.652 37.6332C100.689 37.6178 100.724 37.5948 100.752 37.5656C100.781 37.5368 100.804 37.5025 100.819 37.4647C100.834 37.427 100.842 37.3866 100.842 37.3459V34.2069C100.842 34.1662 100.834 34.1258 100.819 34.0881C100.804 34.0503 100.781 34.016 100.752 33.9872C100.724 33.958 100.689 33.935 100.652 33.9196C100.614 33.9042 100.573 33.8968 100.532 33.8978H97.1399V38.1717C97.1397 38.2173 97.1225 38.2612 97.0916 38.2948C97.0751 38.3129 97.0549 38.3271 97.0325 38.3367C97.01 38.3463 96.9857 38.3509 96.9613 38.3504H96.5532C96.5296 38.35 96.5063 38.3449 96.4848 38.3353C96.4632 38.3258 96.4438 38.312 96.4276 38.2948C96.4105 38.2791 96.3968 38.2601 96.3872 38.239C96.3777 38.2178 96.3725 38.1949 96.3721 38.1717V33.4028C96.3717 33.3777 96.3765 33.3528 96.386 33.3295C96.3956 33.3063 96.4097 33.2852 96.4276 33.2676C96.4438 33.2504 96.4632 33.2367 96.4848 33.2271C96.5063 33.2176 96.5296 33.2125 96.5532 33.2121H100.644C100.772 33.2096 100.899 33.2332 101.018 33.2813C101.136 33.3295 101.244 33.4012 101.334 33.4922C101.425 33.5815 101.496 33.6884 101.544 33.8063C101.592 33.9243 101.615 34.0507 101.612 34.1779V37.3869C101.614 37.5145 101.591 37.6413 101.542 37.7593C101.493 37.8773 101.421 37.984 101.329 38.0727C101.239 38.164 101.131 38.2359 101.012 38.284C100.892 38.3322 100.765 38.3556 100.636 38.3528H97.8764C97.8299 38.3499 97.7861 38.3302 97.7532 38.2973C97.7203 38.2644 97.7006 38.2206 97.6977 38.1741V37.8457Z" fill="white"/>
<path d="M104.741 33.3932C104.739 33.3681 104.742 33.3429 104.751 33.3194C104.761 33.296 104.775 33.2749 104.794 33.258C104.827 33.2256 104.871 33.2074 104.917 33.2073H105.335C105.358 33.207 105.381 33.2114 105.403 33.2201C105.424 33.2288 105.444 33.2417 105.46 33.258C105.478 33.2745 105.493 33.2947 105.502 33.3172C105.512 33.3397 105.516 33.3639 105.516 33.3884V38.1693C105.513 38.2161 105.493 38.2603 105.459 38.2932C105.426 38.3262 105.382 38.3457 105.335 38.348H104.917C104.894 38.3475 104.871 38.3424 104.85 38.3329C104.829 38.3233 104.81 38.3096 104.794 38.2924C104.776 38.2771 104.762 38.2582 104.753 38.2369C104.743 38.2157 104.738 38.1926 104.738 38.1693L104.741 33.3932Z" fill="white"/>
<path d="M113.615 33.2122C113.688 33.2115 113.761 33.2256 113.828 33.2539C113.896 33.2821 113.957 33.3238 114.008 33.3764C114.061 33.4272 114.103 33.4883 114.131 33.5561C114.16 33.6238 114.174 33.6966 114.172 33.77V34.4654C114.173 34.4906 114.169 34.5157 114.159 34.539C114.15 34.5623 114.135 34.5833 114.117 34.6006C114.099 34.6182 114.078 34.632 114.055 34.6411C114.032 34.6502 114.007 34.6545 113.982 34.6537H113.569C113.448 34.6537 113.388 34.5909 113.388 34.4654V33.8979H109.766V38.1597C109.767 38.1845 109.763 38.2092 109.754 38.2324C109.745 38.2556 109.732 38.2768 109.715 38.2949C109.699 38.3131 109.68 38.3276 109.657 38.3372C109.635 38.3468 109.611 38.3513 109.587 38.3505H109.179C109.154 38.3508 109.129 38.3461 109.106 38.3365C109.083 38.327 109.061 38.3128 109.044 38.2949C109.026 38.2775 109.011 38.2565 109.002 38.2332C108.992 38.2099 108.988 38.1849 108.988 38.1597V33.4029C108.988 33.3524 109.008 33.3038 109.044 33.2681C109.08 33.2323 109.129 33.2122 109.179 33.2122H113.615ZM113.982 35.4843C114.031 35.4832 114.079 35.5004 114.117 35.5326C114.135 35.5488 114.15 35.569 114.16 35.5915C114.169 35.6141 114.174 35.6385 114.172 35.663V37.7951C114.173 37.868 114.16 37.9404 114.132 38.008C114.105 38.0755 114.065 38.137 114.013 38.1887C113.962 38.2415 113.901 38.2834 113.833 38.3116C113.766 38.3399 113.693 38.3539 113.62 38.3529H110.517C110.494 38.3524 110.471 38.3473 110.45 38.3378C110.428 38.3282 110.409 38.3145 110.394 38.2973C110.375 38.2799 110.361 38.2589 110.352 38.2356C110.342 38.2123 110.337 38.1873 110.338 38.1621V37.8458C110.338 37.8207 110.342 37.7958 110.352 37.7725C110.362 37.7493 110.376 37.7282 110.394 37.7106C110.409 37.6935 110.428 37.6797 110.45 37.6702C110.471 37.6606 110.494 37.6555 110.517 37.6551H113.414V36.1025H111.541C111.516 36.1028 111.491 36.098 111.468 36.0885C111.446 36.0789 111.425 36.0648 111.408 36.0469C111.389 36.0297 111.375 36.0087 111.365 35.9854C111.356 35.962 111.351 35.9369 111.352 35.9117V35.6727C111.351 35.6482 111.356 35.6237 111.365 35.6012C111.375 35.5786 111.389 35.5585 111.408 35.5423C111.444 35.5102 111.492 35.493 111.541 35.494L113.982 35.4843Z" fill="white"/>
<path d="M117.509 33.3933C117.509 33.3688 117.513 33.3446 117.523 33.3221C117.533 33.2996 117.547 33.2794 117.565 33.2629C117.581 33.2466 117.601 33.2337 117.623 33.225C117.644 33.2163 117.667 33.2119 117.69 33.2122H118.108C118.155 33.2127 118.2 33.2308 118.234 33.2629C118.251 33.2795 118.265 33.2998 118.274 33.3223C118.284 33.3448 118.288 33.369 118.287 33.3933V38.1742C118.287 38.1972 118.282 38.2201 118.273 38.2413C118.264 38.2624 118.25 38.2815 118.234 38.2973C118.201 38.3316 118.156 38.3516 118.108 38.3529H117.69C117.644 38.3506 117.599 38.3311 117.566 38.2981C117.532 38.2652 117.512 38.221 117.509 38.1742V33.3933Z" fill="white"/>
<path d="M120.73 33.3931C120.73 33.3699 120.735 33.3468 120.743 33.3253C120.752 33.3037 120.765 33.2841 120.781 33.2676C120.797 33.2493 120.817 33.2349 120.839 33.2253C120.861 33.2157 120.885 33.2111 120.909 33.212H125.56C125.584 33.2114 125.608 33.2161 125.631 33.2257C125.653 33.2353 125.674 33.2495 125.69 33.2676C125.721 33.3019 125.739 33.3467 125.738 33.3931V33.7094C125.738 33.8374 125.678 33.9002 125.56 33.9002H120.916C120.892 33.9011 120.868 33.8965 120.846 33.8869C120.824 33.8773 120.804 33.8629 120.788 33.8446C120.771 33.8266 120.758 33.8053 120.75 33.7821C120.741 33.7589 120.737 33.7342 120.738 33.7094L120.73 33.3931ZM122.843 34.627C122.842 34.6027 122.846 34.5785 122.856 34.556C122.865 34.5335 122.879 34.5132 122.896 34.4966C122.934 34.4643 122.982 34.4471 123.032 34.4483H123.43C123.454 34.4465 123.478 34.4499 123.5 34.4582C123.523 34.4666 123.543 34.4797 123.56 34.4966C123.577 34.5136 123.59 34.534 123.599 34.5565C123.607 34.579 123.61 34.6031 123.609 34.627V38.174C123.61 38.1979 123.606 38.2217 123.598 38.244C123.589 38.2664 123.576 38.2866 123.559 38.3035C123.543 38.3204 123.522 38.3335 123.5 38.342C123.478 38.3505 123.454 38.3541 123.43 38.3527H123.032C122.982 38.3542 122.933 38.336 122.896 38.302C122.879 38.2859 122.865 38.2661 122.855 38.244C122.846 38.2219 122.842 38.198 122.843 38.174V34.627Z" fill="white"/>
<path d="M132.431 38.1931C132.441 38.2156 132.448 38.2391 132.453 38.2632C132.453 38.3211 132.419 38.3525 132.352 38.3525H131.794C131.768 38.3528 131.743 38.3453 131.722 38.3311C131.701 38.3169 131.685 38.2965 131.676 38.2728L131.113 37.0872H128.72C128.674 37.0872 128.653 37.0631 128.653 37.0172C128.649 37.0005 128.649 36.9832 128.653 36.9665L128.87 36.5295C128.881 36.499 128.901 36.4729 128.928 36.4551C128.955 36.4372 128.987 36.4286 129.02 36.4305H130.785L129.577 33.8106L127.404 38.2728C127.394 38.2965 127.377 38.3168 127.356 38.3309C127.334 38.3451 127.309 38.3526 127.283 38.3525H126.786C126.721 38.3525 126.687 38.3211 126.687 38.2632C126.692 38.2394 126.698 38.216 126.706 38.1931L129.068 33.4026C129.093 33.3458 129.132 33.2961 129.181 33.2577C129.226 33.2232 129.28 33.2037 129.336 33.2021H129.804C129.86 33.2034 129.915 33.2229 129.959 33.2577C130.008 33.2926 130.048 33.339 130.075 33.3929L132.431 38.1931Z" fill="white"/>
<path d="M135.051 33.3933C135.051 33.3697 135.056 33.3463 135.065 33.3247C135.075 33.3031 135.089 33.2837 135.106 33.2677C135.123 33.2497 135.144 33.2354 135.167 33.2258C135.19 33.2162 135.214 33.2116 135.239 33.2122H135.642C135.667 33.212 135.692 33.2169 135.714 33.2264C135.737 33.236 135.758 33.25 135.775 33.2677C135.792 33.2838 135.806 33.3033 135.815 33.3249C135.824 33.3466 135.829 33.3698 135.828 33.3933V37.6647H139.146C139.171 37.6644 139.195 37.6692 139.218 37.6787C139.241 37.6883 139.262 37.7024 139.279 37.7203C139.297 37.7375 139.312 37.7585 139.321 37.7819C139.331 37.8052 139.335 37.8303 139.334 37.8555V38.1622C139.335 38.1874 139.331 38.2125 139.321 38.2359C139.312 38.2592 139.297 38.2802 139.279 38.2974C139.262 38.3152 139.241 38.3293 139.218 38.3389C139.195 38.3485 139.171 38.3532 139.146 38.3529H135.239C135.214 38.3535 135.19 38.3489 135.167 38.3393C135.144 38.3297 135.123 38.3155 135.106 38.2974C135.088 38.2799 135.074 38.2589 135.064 38.2356C135.055 38.2123 135.05 38.1873 135.051 38.1622V33.3933Z" fill="white"/>
<path d="M146.407 33.4028C146.405 33.3528 146.424 33.3042 146.457 33.2676C146.473 33.2493 146.493 33.2349 146.515 33.2253C146.537 33.2157 146.561 33.2111 146.585 33.212H149.584C149.795 33.21 150.004 33.2528 150.198 33.3376C150.379 33.4185 150.543 33.5332 150.681 33.6756C150.821 33.8195 150.934 33.9881 151.014 34.173C151.097 34.3669 151.139 34.5755 151.139 34.7863C151.139 34.9972 151.097 35.2058 151.014 35.3997C150.855 35.7709 150.559 36.0667 150.188 36.2254C149.995 36.3103 149.786 36.3531 149.575 36.351H147.911C147.887 36.3519 147.863 36.3479 147.841 36.3391C147.818 36.3304 147.798 36.3172 147.781 36.3003C147.748 36.2647 147.731 36.218 147.732 36.1699V35.8633C147.731 35.8152 147.748 35.7685 147.781 35.7329C147.798 35.716 147.818 35.7027 147.841 35.694C147.863 35.6853 147.887 35.6813 147.911 35.6822H149.464C149.588 35.6832 149.711 35.6594 149.826 35.6121C149.938 35.5686 150.041 35.5048 150.13 35.4238C150.217 35.3438 150.287 35.2468 150.335 35.1389C150.384 35.0278 150.409 34.9076 150.408 34.7863C150.409 34.6666 150.384 34.548 150.335 34.4386C150.286 34.3329 150.216 34.2378 150.13 34.1585C149.947 33.9936 149.71 33.9017 149.464 33.9002H147.172V38.174C147.173 38.1982 147.169 38.2222 147.159 38.2443C147.149 38.2665 147.135 38.2862 147.117 38.302C147.08 38.336 147.031 38.3542 146.981 38.3527H146.583C146.559 38.3534 146.536 38.3492 146.514 38.3405C146.492 38.3317 146.472 38.3186 146.455 38.3019C146.438 38.2851 146.425 38.2652 146.417 38.2432C146.408 38.2212 146.404 38.1977 146.404 38.174L146.407 33.4028Z" fill="white"/>
<path d="M158.26 38.1931C158.27 38.2156 158.277 38.2391 158.282 38.2632C158.282 38.3211 158.248 38.3525 158.181 38.3525H157.623C157.597 38.3528 157.572 38.3453 157.551 38.3311C157.53 38.3169 157.514 38.2965 157.505 38.2728L156.949 37.0872H154.559C154.549 37.089 154.539 37.0883 154.53 37.0854C154.521 37.0825 154.512 37.0774 154.505 37.0705C154.499 37.0636 154.493 37.0552 154.491 37.0459C154.488 37.0366 154.487 37.0268 154.489 37.0172C154.485 37.0005 154.485 36.9832 154.489 36.9665L154.708 36.5295C154.719 36.499 154.738 36.4727 154.765 36.4548C154.792 36.4369 154.824 36.4283 154.856 36.4305H156.621L155.414 33.8106L153.24 38.2728C153.23 38.2965 153.214 38.3168 153.192 38.3309C153.171 38.3451 153.145 38.3526 153.12 38.3525H152.603C152.538 38.3525 152.504 38.3211 152.504 38.2632C152.509 38.2394 152.515 38.216 152.523 38.1931L154.885 33.4026C154.916 33.3436 154.961 33.2936 155.018 33.2577C155.062 33.2232 155.116 33.2037 155.172 33.2021H155.64C155.697 33.2034 155.751 33.2229 155.795 33.2577C155.844 33.2926 155.884 33.339 155.911 33.3929L158.26 38.1931Z" fill="white"/>
<path d="M161.011 33.4024C161.008 33.3766 161.01 33.3504 161.017 33.3255C161.025 33.3006 161.037 33.2775 161.054 33.2575C161.07 33.2393 161.09 33.2249 161.112 33.2153C161.134 33.2057 161.158 33.2011 161.182 33.202H164.171C164.382 33.2 164.591 33.2427 164.785 33.3276C165.159 33.4898 165.458 33.7885 165.62 34.163C165.731 34.4226 165.769 34.7073 165.732 34.987C165.694 35.2667 165.581 35.531 165.405 35.7518C165.298 35.8857 165.171 36.0022 165.028 36.0971C164.885 36.1917 164.727 36.2604 164.56 36.3L165.973 38.2316C165.987 38.2522 165.995 38.2766 165.994 38.3017C165.994 38.3355 165.973 38.3524 165.934 38.3524H165.306C165.255 38.351 165.204 38.3351 165.161 38.3065C165.113 38.2779 165.071 38.2392 165.038 38.193L163.684 36.3507H162.517C162.493 36.3515 162.469 36.3475 162.447 36.3388C162.424 36.3301 162.404 36.3169 162.387 36.3C162.371 36.2828 162.358 36.2627 162.35 36.2408C162.342 36.2188 162.338 36.1954 162.339 36.172V35.8629C162.337 35.8148 162.355 35.7681 162.387 35.7325C162.404 35.7156 162.424 35.7024 162.447 35.6937C162.469 35.685 162.493 35.6809 162.517 35.6818H164.072C164.193 35.6839 164.312 35.6621 164.424 35.6177C164.536 35.5734 164.638 35.5074 164.724 35.4234C164.81 35.3412 164.879 35.2422 164.926 35.1327C164.973 35.0231 164.997 34.9052 164.997 34.786C164.997 34.6668 164.973 34.5489 164.926 34.4393C164.879 34.3297 164.81 34.2308 164.724 34.1485C164.549 33.9802 164.315 33.8874 164.072 33.8902H161.778V38.164C161.779 38.1881 161.775 38.2122 161.765 38.2343C161.756 38.2564 161.741 38.2762 161.723 38.292C161.686 38.326 161.638 38.3442 161.588 38.3427H161.189C161.166 38.3434 161.142 38.3392 161.12 38.3305C161.098 38.3217 161.078 38.3086 161.061 38.2919C161.045 38.2751 161.032 38.2552 161.023 38.2332C161.014 38.2112 161.01 38.1877 161.011 38.164V33.4024Z" fill="white"/>
<path d="M167.883 33.3933C167.883 33.3701 167.887 33.347 167.896 33.3255C167.904 33.3039 167.917 33.2843 167.934 33.2677C167.95 33.2497 167.97 33.2354 167.993 33.2259C168.015 33.2163 168.04 33.2116 168.064 33.2122H172.714C172.739 33.2116 172.763 33.2163 172.786 33.2259C172.808 33.2354 172.828 33.2497 172.845 33.2677C172.861 33.2844 172.873 33.3041 172.882 33.3257C172.89 33.3472 172.894 33.3702 172.893 33.3933V33.7096C172.893 33.8376 172.835 33.9004 172.714 33.9004H168.057C168.032 33.9009 168.008 33.8963 167.985 33.8867C167.963 33.8771 167.943 33.8628 167.926 33.8448C167.909 33.8267 167.896 33.8055 167.887 33.7823C167.879 33.7591 167.875 33.7344 167.876 33.7096L167.883 33.3933ZM169.996 34.6272C169.995 34.6027 170 34.5785 170.009 34.556C170.019 34.5335 170.033 34.5133 170.051 34.4968C170.088 34.4647 170.135 34.4475 170.184 34.4485H170.582C170.63 34.4471 170.677 34.4644 170.713 34.4968C170.73 34.5139 170.743 34.5343 170.752 34.5567C170.76 34.5792 170.764 34.6031 170.763 34.6272V38.1742C170.765 38.1979 170.761 38.2216 170.752 38.2437C170.743 38.2658 170.73 38.2857 170.713 38.3022C170.696 38.3191 170.675 38.3323 170.653 38.341C170.63 38.3498 170.606 38.3538 170.582 38.3529H170.184C170.135 38.3543 170.087 38.336 170.051 38.3022C170.033 38.2864 170.019 38.2666 170.009 38.2445C169.999 38.2224 169.995 38.1983 169.996 38.1742V34.6272Z" fill="white"/>
<path d="M179.726 33.4028C179.726 33.3777 179.731 33.3528 179.74 33.3295C179.75 33.3063 179.764 33.2852 179.782 33.2676C179.818 33.2317 179.868 33.2118 179.919 33.2121H180.253C180.278 33.2117 180.303 33.2165 180.326 33.226C180.349 33.2355 180.37 33.2497 180.388 33.2676C180.406 33.2849 180.421 33.3059 180.43 33.3292C180.44 33.3525 180.444 33.3776 180.443 33.4028V38.1741C180.444 38.198 180.44 38.2219 180.431 38.2441C180.422 38.2662 180.408 38.286 180.39 38.3021C180.353 38.336 180.305 38.3542 180.255 38.3528H179.888C179.83 38.3502 179.774 38.3345 179.724 38.3069C179.665 38.2808 179.612 38.242 179.569 38.1934L175.377 33.3642C175.362 33.3507 175.349 33.334 175.341 33.3153C175.332 33.2965 175.327 33.2762 175.327 33.2555C175.327 33.2217 175.351 33.2048 175.397 33.2048H176.005C176.063 33.2109 176.116 33.2396 176.153 33.2845L179.729 37.4183L179.726 33.4028ZM176.025 38.1741C176.026 38.1978 176.022 38.2215 176.013 38.2436C176.004 38.2656 175.991 38.2856 175.974 38.3021C175.957 38.3189 175.937 38.3321 175.915 38.3408C175.893 38.3496 175.87 38.3536 175.846 38.3528H175.505C175.482 38.3534 175.458 38.3493 175.436 38.3405C175.414 38.3318 175.394 38.3186 175.378 38.3019C175.361 38.2852 175.348 38.2652 175.339 38.2433C175.33 38.2213 175.326 38.1977 175.327 38.1741V34.2576C175.327 34.219 175.341 34.1997 175.368 34.1997C175.394 34.1997 175.433 34.2286 175.486 34.289L175.955 34.8371C175.995 34.881 176.02 34.937 176.025 34.9965V38.1741Z" fill="white"/>
<path d="M184.749 37.6647H188.284C188.307 37.6651 188.331 37.6702 188.352 37.6797C188.374 37.6893 188.393 37.7031 188.409 37.7202C188.427 37.738 188.441 37.7591 188.45 37.7824C188.459 37.8056 188.463 37.8305 188.462 37.8555V38.1742C188.462 38.1973 188.458 38.2201 188.449 38.2413C188.44 38.2624 188.426 38.2815 188.409 38.2973C188.393 38.3145 188.374 38.3283 188.352 38.3378C188.331 38.3474 188.307 38.3525 188.284 38.3529H184.16C184.113 38.35 184.069 38.3303 184.036 38.2974C184.004 38.2644 183.984 38.2206 183.981 38.1742V33.4029C183.981 33.3778 183.985 33.3529 183.995 33.3296C184.004 33.3064 184.019 33.2853 184.037 33.2677C184.052 33.2506 184.071 33.2368 184.092 33.2273C184.114 33.2178 184.136 33.2126 184.16 33.2122H188.236C188.26 33.2119 188.285 33.2166 188.308 33.2262C188.331 33.2357 188.351 33.2499 188.368 33.2677C188.386 33.2853 188.4 33.3064 188.41 33.3296C188.419 33.3529 188.424 33.3778 188.424 33.4029V33.7217C188.423 33.7449 188.418 33.7678 188.409 33.7889C188.399 33.8101 188.385 33.8291 188.368 33.8448C188.351 33.8626 188.331 33.8768 188.308 33.8863C188.285 33.8959 188.26 33.9006 188.236 33.9003H184.749V37.6647ZM185.297 35.5133C185.295 35.4898 185.299 35.4662 185.307 35.4441C185.316 35.4221 185.329 35.402 185.345 35.3853C185.362 35.3684 185.383 35.3552 185.405 35.3465C185.428 35.3378 185.452 35.3337 185.476 35.3346H187.975C188.022 35.3346 188.067 35.3528 188.1 35.3853C188.119 35.4012 188.133 35.4209 188.143 35.443C188.152 35.4652 188.157 35.4892 188.156 35.5133V35.8224C188.156 35.8468 188.152 35.8711 188.142 35.8936C188.133 35.9161 188.118 35.9362 188.1 35.9528C188.066 35.9846 188.021 36.0019 187.975 36.001H185.476C185.452 36.0028 185.428 35.9995 185.405 35.9911C185.383 35.9828 185.362 35.9697 185.345 35.9527C185.328 35.9358 185.315 35.9153 185.307 35.8928C185.299 35.8703 185.295 35.8463 185.297 35.8224V35.5133Z" fill="white"/>
<path d="M191.441 33.4028C191.44 33.3528 191.458 33.3042 191.492 33.2676C191.508 33.2493 191.528 33.2349 191.55 33.2253C191.572 33.2157 191.596 33.2111 191.62 33.212H194.617C194.827 33.21 195.035 33.2528 195.228 33.3376C195.414 33.4173 195.584 33.532 195.727 33.6756C195.87 33.8187 195.985 33.9874 196.065 34.173C196.176 34.4326 196.215 34.7174 196.177 34.9971C196.139 35.2768 196.026 35.541 195.85 35.7618C195.744 35.8957 195.616 36.0122 195.474 36.1071C195.331 36.2017 195.172 36.2704 195.005 36.31L196.418 38.2416C196.432 38.2622 196.44 38.2866 196.44 38.3117C196.44 38.3455 196.418 38.3624 196.379 38.3624H195.751C195.7 38.361 195.65 38.3451 195.607 38.3165C195.558 38.2879 195.516 38.2492 195.483 38.203L194.134 36.3607H192.967C192.943 36.3616 192.919 36.3575 192.897 36.3488C192.875 36.3401 192.854 36.3269 192.837 36.31C192.821 36.2932 192.808 36.2731 192.799 36.2511C192.791 36.229 192.787 36.2055 192.789 36.182V35.8729C192.787 35.8489 192.79 35.8248 192.799 35.8022C192.807 35.7795 192.82 35.759 192.837 35.7418C192.854 35.7247 192.874 35.7113 192.897 35.7027C192.919 35.6941 192.943 35.6904 192.967 35.6918H194.522C194.643 35.6939 194.762 35.6721 194.874 35.6278C194.986 35.5834 195.088 35.5174 195.174 35.4335C195.261 35.3512 195.329 35.2522 195.376 35.1427C195.423 35.0331 195.447 34.9152 195.447 34.796C195.447 34.6768 195.423 34.5589 195.376 34.4493C195.329 34.3398 195.261 34.2408 195.174 34.1585C194.999 33.9902 194.765 33.8974 194.522 33.9002H192.202V38.174C192.203 38.198 192.199 38.2219 192.19 38.244C192.181 38.2661 192.167 38.2859 192.149 38.302C192.112 38.336 192.064 38.3542 192.014 38.3527H191.615C191.592 38.3534 191.568 38.3492 191.546 38.3405C191.524 38.3317 191.504 38.3186 191.487 38.3019C191.471 38.2851 191.458 38.2652 191.449 38.2432C191.44 38.2212 191.436 38.1977 191.437 38.174L191.441 33.4028Z" fill="white"/>
</g>
<defs>
<linearGradient id="paint0_linear_40_5632" x1="6.15527" y1="18.2221" x2="44.492" y2="18.2221" gradientUnits="userSpaceOnUse">
<stop stop-color="#78CBD3"/>
<stop offset="1" stop-color="#194989"/>
</linearGradient>
<linearGradient id="paint1_linear_40_5632" x1="0" y1="33.6442" x2="29.1153" y2="33.6442" gradientUnits="userSpaceOnUse">
<stop stop-color="#78CBD3"/>
<stop offset="1" stop-color="#194989"/>
</linearGradient>
<linearGradient id="paint2_linear_40_5632" x1="0.173828" y1="19.0765" x2="22.4148" y2="19.0765" gradientUnits="userSpaceOnUse">
<stop stop-color="#78CBD3"/>
<stop offset="1" stop-color="#194989"/>
</linearGradient>
<clipPath id="clip0_40_5632">
<rect width="205" height="43.8975" fill="white" transform="translate(0 0.177734)"/>
</clipPath>
</defs>
</svg>
